<?xml version="1.0" encoding="UTF-8"?>
<svg xmlns="http://www.w3.org/2000/svg" xmlns:xlink="http://www.w3.org/1999/xlink" width="16pt" height="16pt" viewBox="0 0 16 16" version="1.1">
<defs>
<linearGradient id="linear0" gradientUnits="userSpaceOnUse" x1="86" y1="18.81519" x2="86" y2="153.18212" gradientTransform="matrix(0.0930233,0,0,0.0930233,0,0)">
<stop offset="0" style="stop-color:rgb(84.313725%,100%,2.352941%);stop-opacity:1;"/>
<stop offset="1" style="stop-color:rgb(100%,0%,27.843137%);stop-opacity:1;"/>
</linearGradient>
<linearGradient id="linear1" gradientUnits="userSpaceOnUse" x1="86" y1="32.08875" x2="86" y2="139.91125" gradientTransform="matrix(0.0930233,0,0,0.0930233,0,0)">
<stop offset="0" style="stop-color:rgb(91.372549%,100%,46.27451%);stop-opacity:1;"/>
<stop offset="1" style="stop-color:rgb(100%,43.921569%,59.215686%);stop-opacity:1;"/>
</linearGradient>
</defs>
<g id="surface21611952">
<path style=" stroke:none;fill-rule:nonzero;fill:url(#linear0);" d="M 12.4375 14.25 C 12.246094 14.25 12.054688 14.175781 11.910156 14.03125 L 8 10.121094 L 4.089844 14.03125 C 3.796875 14.324219 3.324219 14.324219 3.03125 14.03125 L 1.96875 12.96875 C 1.675781 12.675781 1.675781 12.203125 1.96875 11.910156 L 5.878906 8 L 1.96875 4.089844 C 1.675781 3.796875 1.675781 3.324219 1.96875 3.03125 L 3.03125 1.96875 C 3.324219 1.675781 3.796875 1.675781 4.089844 1.96875 L 8 5.878906 L 11.910156 1.96875 C 12.203125 1.675781 12.675781 1.675781 12.96875 1.96875 L 14.03125 3.03125 C 14.324219 3.324219 14.324219 3.796875 14.03125 4.089844 L 10.121094 8 L 14.03125 11.910156 C 14.324219 12.203125 14.324219 12.675781 14.03125 12.96875 L 12.96875 14.03125 C 12.824219 14.175781 12.632812 14.25 12.4375 14.25 Z M 8 9.414062 L 12.261719 13.675781 C 12.359375 13.773438 12.519531 13.773438 12.617188 13.675781 L 13.675781 12.617188 C 13.773438 12.519531 13.773438 12.359375 13.675781 12.261719 L 9.414062 8 L 13.675781 3.738281 C 13.773438 3.640625 13.773438 3.480469 13.675781 3.382812 L 12.617188 2.324219 C 12.519531 2.226562 12.359375 2.226562 12.261719 2.324219 L 8 6.585938 L 3.738281 2.324219 C 3.640625 2.226562 3.480469 2.226562 3.382812 2.324219 L 2.324219 3.382812 C 2.226562 3.480469 2.226562 3.640625 2.324219 3.738281 L 6.585938 8 L 2.324219 12.261719 C 2.226562 12.359375 2.226562 12.519531 2.324219 12.617188 L 3.382812 13.675781 C 3.480469 13.773438 3.640625 13.773438 3.738281 13.675781 Z M 8 9.414062 "/>
<path style=" stroke:none;fill-rule:nonzero;fill:url(#linear1);" d="M 13.015625 3.515625 L 12.484375 2.984375 L 8 7.46875 L 3.515625 2.984375 L 2.984375 3.515625 L 7.46875 8 L 2.984375 12.484375 L 3.515625 13.015625 L 8 8.53125 L 12.484375 13.015625 L 13.015625 12.484375 L 8.53125 8 Z M 13.015625 3.515625 "/>
</g>
</svg>
